<?xml version="1.0" encoding="UTF-8"?>
<svg width="21px" height="21px" viewBox="0 0 21 21" version="1.1" xmlns="http://www.w3.org/2000/svg" xmlns:xlink="http://www.w3.org/1999/xlink">
    <!-- Generator: Sketch 48.2 (47327) - http://www.bohemiancoding.com/sketch -->
    <title>Group 5</title>
    <desc>Created with Sketch.</desc>
    <defs></defs>
    <g id="Navigation-2" stroke="none" stroke-width="1" fill="none" fill-rule="evenodd" transform="translate(-134.000000, -289.000000)">
        <g id="Group-5" transform="translate(134.000000, 289.000000)" fill="#000000" fill-rule="nonzero">
            <path d="M-4,6.17153629 C-4,5.88124411 -3.89468141,5.57021678 -3.66298052,5.34213007 C-3.19957873,4.88595664 -2.4623486,4.88595664 -1.99894681,5.34213007 L6.00526593,13.200754 L13.988415,5.34213007 C14.4518167,4.88595664 15.1890469,4.88595664 15.6524487,5.34213007 C16.1158504,5.79830349 16.1158504,6.52403393 15.6524487,6.98020735 L6.84781464,15.6682375 C6.61611374,15.8963242 6.3212217,16 6.00526593,16 C5.68931016,16 5.39441811,15.8755891 5.16271722,15.6682375 L-3.66298052,6.98020735 C-3.89468141,6.75212064 -4,6.46182846 -4,6.17153629 Z" id="Shape" transform="translate(6.000000, 10.500000) rotate(90.000000) translate(-6.000000, -10.500000) "></path>
            <path d="M5,6.17153629 C5,5.88124411 5.10531859,5.57021678 5.33701948,5.34213007 C5.80042127,4.88595664 6.5376514,4.88595664 7.00105319,5.34213007 L15.0052659,13.200754 L22.988415,5.34213007 C23.4518167,4.88595664 24.1890469,4.88595664 24.6524487,5.34213007 C25.1158504,5.79830349 25.1158504,6.52403393 24.6524487,6.98020735 L15.8478146,15.6682375 C15.6161137,15.8963242 15.3212217,16 15.0052659,16 C14.6893102,16 14.3944181,15.8755891 14.1627172,15.6682375 L5.33701948,6.98020735 C5.10531859,6.75212064 5,6.46182846 5,6.17153629 Z" id="Shape-Copy" transform="translate(15.000000, 10.500000) rotate(90.000000) translate(-15.000000, -10.500000) "></path>
        </g>
    </g>
</svg>